<?xml version="1.0" encoding="utf-8"?>
<!-- Generator: Adobe Illustrator 15.0.2, SVG Export Plug-In . SVG Version: 6.00 Build 0)  -->
<!DOCTYPE svg PUBLIC "-//W3C//DTD SVG 1.0//EN" "http://www.w3.org/TR/2001/REC-SVG-20010904/DTD/svg10.dtd">
<svg version="1.0" xmlns="http://www.w3.org/2000/svg" xmlns:xlink="http://www.w3.org/1999/xlink" x="0px" y="0px" width="1280px"
     height="720px" viewBox="0 0 1280 720" enable-background="new 0 0 1280 720" xml:space="preserve">
    <g id="Background" >
        <rect x="0" y="0" stroke-miterlimit="10" width="1280" height="720" fill="#662525" stroke="none" />
    </g>
    <g id="CircuitPaths">
	<polyline fill="none" stroke="#00FF00" stroke-miterlimit="10" points="0,74 175,74 259,159 259,313 
		346,400 532,400 591,340 658,340 717,399 717,529 650,597"/>
	<polyline fill="none" stroke="#00FF00" stroke-miterlimit="10" points="0,58 183,58 275,149 275,305 
		314,344 435,223 435,110 378,53 378,0 	"/>
	<polyline fill="none" stroke="#00FF00" stroke-miterlimit="10" points="394,0 394,53 454,113 454,223 
		324,353 348,376 445,376 500,321 449,270 424,270 346,347 360,361 
		412,361 442,332 	"/>
	<polyline fill="none" stroke="#00FF00" stroke-miterlimit="10" points="537,313 475,375 532,375 595,311 
		678,311 709,342 801,250 	"/>
	<polyline fill="none" stroke="#00FF00" stroke-miterlimit="10" points="0,98 171,98 239,166 239,325 
		292,378 292,418 237,473 237,559 352,559 352,476 	"/>
	<circle fill="#ff4444" stroke="#000000" stroke-width="0.9174" stroke-miterlimit="10" cx="353" cy="477.917" r="7.5"/>
	<circle fill="#ff4444" stroke="#000000" stroke-width="0.9174" stroke-miterlimit="10" cx="439.833" cy="334.597" r="7.5"/>
	<circle fill="#ff4444" stroke="#000000" stroke-width="0.9174" stroke-miterlimit="10" cx="538.667" cy="313.291" r="7.5"/>
	<g>
		<polyline fill="none" stroke="#000000" stroke-width="0.9174" stroke-miterlimit="10" points="0,129.667 169.5,129.667 
			210.729,170.896 210.729,334.597 169.559,375.768 169.559,497.167 102.03,564.696 130.917,593.583 		"/>
		<polyline fill="none" stroke="#000000" stroke-width="0.9174" stroke-miterlimit="10" points="0,132.583 167.833,132.583 
			207.203,171.952 207.203,333.847 166.223,374.827 166.223,495.242 97.107,564.357 126.167,593.416 		"/>
		<polyline fill="none" stroke="#000000" stroke-width="0.9174" stroke-miterlimit="10" points="0,135.5 166.167,135.5 
			203.675,173.008 203.675,333.097 162.886,373.887 162.886,493.317 92.185,564.019 121.417,593.25 		"/>
		<polyline fill="none" stroke="#000000" stroke-width="0.9174" stroke-miterlimit="10" points="0,138.417 164.5,138.417 
			200.148,174.064 200.148,332.347 159.55,372.945 159.55,491.392 87.263,563.679 116.667,593.083 		"/>
		<polyline fill="none" stroke="#000000" stroke-width="0.9174" stroke-miterlimit="10" points="0,141.333 162.833,141.333 
			196.621,175.121 196.621,331.597 156.213,372.005 156.213,489.467 82.34,563.34 111.917,592.917 		"/>
		<polyline fill="none" stroke="#000000" stroke-width="0.9174" stroke-miterlimit="10" points="0,144.25 161.167,144.25 
			193.094,176.177 193.094,330.847 152.877,371.064 152.877,487.542 77.418,563.001 107.167,592.75 		"/>
		<polyline fill="none" stroke="#000000" stroke-width="0.9174" stroke-miterlimit="10" points="0,147.167 159.5,147.167 
			189.567,177.233 189.567,330.097 149.54,370.124 149.54,485.617 72.495,562.662 102.417,592.583 		"/>
		<polyline fill="none" stroke="#000000" stroke-width="0.9174" stroke-miterlimit="10" points="0,150.083 157.833,150.083 
			186.04,178.29 186.04,329.347 146.204,369.184 146.204,483.692 67.573,562.323 97.667,592.417 		"/>
		<polyline fill="none" stroke="#000000" stroke-width="0.9174" stroke-miterlimit="10" points="0,153 156.167,153 182.513,179.346 
			182.513,328.597 142.867,368.242 142.867,481.767 62.65,561.983 92.917,592.25 		"/>
		<polyline fill="none" stroke="#000000" stroke-width="0.9174" stroke-miterlimit="10" points="0,155.917 154.5,155.917 
			178.986,180.402 178.986,327.847 139.531,367.302 139.531,479.842 57.728,561.645 88.167,592.084 		"/>
		<polyline fill="none" stroke="#000000" stroke-width="0.9174" stroke-miterlimit="10" points="0,158.833 152.833,158.833 
			175.458,181.458 175.458,327.097 136.194,366.361 136.194,477.917 52.806,561.306 83.417,591.917 		"/>
    </g>
        </g>
<g id="Processor">
	<g>
		<path fill="#a03838" d="M672,170c0,1.657-1.343,3-3,3H566.167h-24.5c-1.657,0-3-1.343-3-3V42.667c0-1.657,1.343-3,3-3H669
			c1.657,0,3,1.343,3,3V170z"/>
		<path fill="none" stroke="#000000" stroke-miterlimit="10" d="M672,170c0,1.657-1.343,3-3,3H566.167h-24.5c-1.657,0-3-1.343-3-3
			V42.667c0-1.657,1.343-3,3-3H669c1.657,0,3,1.343,3,3V170z"/>
		<rect x="546.667" y="47.667" fill="none" stroke="#000000" stroke-miterlimit="10" width="117.333" height="117.333"/>
    </g>
	<g>
		<polyline fill="none" stroke="#000000" stroke-miterlimit="10" points="559.5,173 559.5,218 589.083,247.583 659.5,247.583 
			689.708,277.791 738.667,277.791 756.479,295.604 		"/>
		<polyline fill="none" stroke="#000000" stroke-miterlimit="10" points="574.5,173 574.5,216.75 597.951,240.2 668.25,240.2 
			697.982,269.934 747.573,269.934 764.861,287.222 		"/>
		<polyline fill="none" stroke="#000000" stroke-miterlimit="10" points="589.5,173 589.5,215.5 606.818,232.818 677,232.818 
			706.258,262.076 756.479,262.076 773.243,278.84 		"/>
        </g>
        </g>
</svg>